<svg width="13" height="16" viewBox="0 0 13 16" fill="none" xmlns="http://www.w3.org/2000/svg">
<path d="M2.6 11.7109C2.6 12.0687 2.8925 12.3615 3.25 12.3615H3.9V14.6386C3.9 15.1786 4.3355 15.6145 4.875 15.6145C5.4145 15.6145 5.85 15.1786 5.85 14.6386V12.3615H7.15V14.6386C7.15 15.1786 7.5855 15.6145 8.125 15.6145C8.6645 15.6145 9.1 15.1786 9.1 14.6386V12.3615H9.75C10.1075 12.3615 10.4 12.0687 10.4 11.7109V5.20484H2.6V11.7109ZM0.975 5.20484C0.4355 5.20484 0 5.64075 0 6.18075V10.735C0 11.275 0.4355 11.7109 0.975 11.7109C1.5145 11.7109 1.95 11.275 1.95 10.735V6.18075C1.95 5.64075 1.5145 5.20484 0.975 5.20484ZM12.025 5.20484C11.4855 5.20484 11.05 5.64075 11.05 6.18075V10.735C11.05 11.275 11.4855 11.7109 12.025 11.7109C12.5645 11.7109 13 11.275 13 10.735V6.18075C13 5.64075 12.5645 5.20484 12.025 5.20484ZM8.7945 1.40531L9.6395 0.55952C9.7695 0.429399 9.7695 0.227712 9.6395 0.0975908C9.5095 -0.0325303 9.308 -0.0325303 9.178 0.0975908L8.216 1.06049C7.7025 0.800244 7.1175 0.650605 6.5 0.650605C5.876 0.650605 5.291 0.800244 4.771 1.06049L3.8025 0.0975908C3.6725 -0.0325303 3.471 -0.0325303 3.341 0.0975908C3.211 0.227712 3.211 0.429399 3.341 0.55952L4.1925 1.41181C3.2305 2.12097 2.6 3.25953 2.6 4.55424H10.4C10.4 3.25953 9.7695 2.11447 8.7945 1.40531ZM5.2 3.25303H4.55V2.60242H5.2V3.25303ZM8.45 3.25303H7.8V2.60242H8.45V3.25303Z" fill="white"/>
</svg>
