<svg width="19" height="19" viewBox="0 0 19 19" fill="none" xmlns="http://www.w3.org/2000/svg">
<g clip-path="url(#clip0_109_192)">
<path d="M13.9681 11.5771L9.39812 8.5304L9.39812 13.1004L4.82812 10.0537M10.1598 2.05625L8.63645 2.05625M13.9681 8.14957L13.9681 7.99724C13.9681 6.71752 13.9681 6.07766 13.7191 5.58887C13.5 5.15892 13.1504 4.80936 12.7205 4.59029C12.2317 4.34124 11.5918 4.34124 10.3121 4.34124L7.87478 4.34124C7.16646 4.34124 6.81229 4.34124 6.52172 4.4191C5.73319 4.63039 5.11727 5.2463 4.90598 6.03484C4.82812 6.32541 4.82812 6.67958 4.82812 7.3879M4.82812 13.4812L4.82812 13.6336C4.82812 14.9133 4.82812 15.5531 5.07717 16.0419C5.29624 16.4719 5.6458 16.8214 6.07575 17.0405C6.56454 17.2896 7.2044 17.2896 8.48412 17.2896L10.9214 17.2896C11.6298 17.2896 11.9839 17.2896 12.2745 17.2117C13.063 17.0004 13.679 16.3845 13.8902 15.596C13.9681 15.3054 13.9681 14.9512 13.9681 14.2429" stroke="white" stroke-width="1.52333" stroke-linecap="round" stroke-linejoin="round"/>
</g>
<defs>
<clipPath id="clip0_109_192">
<rect width="18.28" height="18.28" fill="white" transform="translate(0.258301 18.813) rotate(-90)"/>
</clipPath>
</defs>
</svg>
