<svg width="33" height="34" viewBox="0 0 33 34" fill="none" xmlns="http://www.w3.org/2000/svg">
<path d="M5.8956 1.85449H4.53289C2.96361 1.85449 1.69818 3.13925 1.72195 4.70834L2.1053 30.0097C2.12857 31.5455 3.38023 32.7783 4.91624 32.7783H16.6721C18.2247 32.7783 19.4833 31.5197 19.4833 29.9671V29.03M5.8956 1.85449V3.26012C5.8956 4.81274 7.15424 6.07138 8.70686 6.07138H12.9237C14.4764 6.07138 15.735 4.81274 15.735 3.26012V1.85449M5.8956 1.85449H15.735M15.735 1.85449H16.6721C18.2247 1.85449 19.4833 3.11314 19.4833 4.66575V29.03M19.4833 29.03H24.2748C25.7854 29.03 27.0259 27.8362 27.084 26.3268L27.4486 16.8479M27.4486 16.8479H26.5115C24.9589 16.8479 23.7002 15.5892 23.7002 14.0366V11.2254C23.7002 10.1903 24.5393 9.35118 25.5744 9.35118V9.35118M27.4486 16.8479L29.0675 16.4431C30.319 16.1303 31.1969 15.0058 31.1969 13.7158V11.2254C31.1969 10.1903 30.3578 9.35118 29.3227 9.35118V9.35118M25.5744 5.13429V9.35118M25.5744 9.35118H29.3227M29.3227 5.13429V9.35118" stroke="white" stroke-width="1.87417" stroke-linecap="round"/>
</svg>
