<svg width="14" height="16" viewBox="0 0 14 16" fill="none" xmlns="http://www.w3.org/2000/svg">
<path d="M9 12.6666C9 13.7712 8.10457 14.6666 7 14.6666C5.89543 14.6666 5 13.7712 5 12.6666M8.19767 4.15896C8.488 3.85901 8.66667 3.45033 8.66667 2.99992C8.66667 2.07944 7.92048 1.33325 7 1.33325C6.07953 1.33325 5.33334 2.07944 5.33334 2.99992C5.33334 3.45033 5.512 3.85901 5.80233 4.15896M0.697883 5.54856C0.688319 4.58099 1.20997 3.67746 2.05269 3.20196M13.3021 5.54856C13.3117 4.58099 12.79 3.67746 11.9473 3.20196M11 7.46659C11 6.54717 10.5786 5.66541 9.82843 5.01528C9.07829 4.36516 8.06087 3.99992 7 3.99992C5.93914 3.99992 4.92172 4.36516 4.17158 5.01528C3.42143 5.66541 3 6.54717 3 7.46659C3 8.98779 2.62276 10.1003 2.15205 10.8964C1.61556 11.8037 1.34732 12.2573 1.35791 12.3657C1.37003 12.4897 1.39235 12.5288 1.4929 12.6023C1.58078 12.6666 2.02234 12.6666 2.90546 12.6666H11.0945C11.9777 12.6666 12.4192 12.6666 12.5071 12.6023C12.6077 12.5288 12.63 12.4897 12.6421 12.3657C12.6527 12.2573 12.3844 11.8037 11.848 10.8964C11.3772 10.1003 11 8.98779 11 7.46659Z" stroke="white" stroke-width="1.33333" stroke-linecap="round" stroke-linejoin="round"/>
</svg>
