<svg width="24" height="23" viewBox="0 0 24 23" fill="none" xmlns="http://www.w3.org/2000/svg">
<rect opacity="0.27" width="23.427" height="22.0883" rx="7.36276" fill="white"/>
<g clip-path="url(#clip0_809_457)">
<path d="M16.7562 12.5673L12.1862 9.52064L12.1862 14.0906L7.61621 11.044M12.9479 3.04648L11.4245 3.04648M16.7562 9.1398L16.7562 8.98747C16.7562 7.70775 16.7562 7.06789 16.5071 6.57911C16.2881 6.14916 15.9385 5.7996 15.5086 5.58053C15.0198 5.33148 14.3799 5.33148 13.1002 5.33148L10.6629 5.33148C9.95454 5.33148 9.60038 5.33148 9.30981 5.40934C8.52127 5.62062 7.90536 6.23654 7.69407 7.02507C7.61621 7.31565 7.61621 7.66981 7.61621 8.37814M7.61621 14.4715L7.61621 14.6238C7.61621 15.9035 7.61621 16.5434 7.86526 17.0322C8.08433 17.4621 8.43389 17.8117 8.86384 18.0307C9.35263 18.2798 9.99249 18.2798 11.2722 18.2798L13.7095 18.2798C14.4179 18.2798 14.772 18.2798 15.0626 18.2019C15.8511 17.9906 16.467 17.3747 16.6783 16.5862C16.7562 16.2956 16.7562 15.9415 16.7562 15.2331" stroke="white" stroke-width="1.52333" stroke-linecap="round" stroke-linejoin="round"/>
</g>
<defs>
<clipPath id="clip0_809_457">
<rect width="18.28" height="18.28" fill="white" transform="translate(3.04639 19.8032) rotate(-90)"/>
</clipPath>
</defs>
</svg>
  