<svg width="24" height="23" viewBox="0 0 24 23" fill="none" xmlns="http://www.w3.org/2000/svg">
<rect opacity="0.27" width="23.427" height="22.0883" rx="7.36276" fill="white"/>
<path d="M10.2301 14.8567L13.1976 14.8567M10.2301 11.8893L13.1976 11.8893M12.4557 3.35787L10.972 3.35787M16.165 14.6341L16.165 9.14438C16.165 7.89794 16.165 7.27472 15.9224 6.79864C15.7091 6.37987 15.3686 6.0394 14.9498 5.82602C14.4737 5.58345 13.8505 5.58345 12.6041 5.58345L10.8236 5.58345C9.57718 5.58345 8.95396 5.58345 8.47788 5.82602C8.05911 6.0394 7.71864 6.37987 7.50527 6.79864C7.26269 7.27472 7.26269 7.89794 7.26269 9.14438L7.2627 14.6341C7.2627 15.8806 7.2627 16.5038 7.50527 16.9799C7.71864 17.3987 8.05911 17.7391 8.47788 17.9525C8.95396 18.1951 9.57718 18.1951 10.8236 18.1951L12.6041 18.1951C13.8505 18.1951 14.4737 18.1951 14.9498 17.9525C15.3686 17.7391 15.7091 17.3987 15.9224 16.9799C16.165 16.5038 16.165 15.8806 16.165 14.6341Z" stroke="white" stroke-width="1.48372" stroke-linecap="round" stroke-linejoin="round"/>
</svg>
