<svg width="24" height="23" viewBox="0 0 24 23" fill="none" xmlns="http://www.w3.org/2000/svg">
<rect opacity="0.27" width="23.427" height="22.0883" rx="7.36276" fill="white"/>
<path d="M8.50237 4.79785H7.94839C7.31044 4.79785 6.796 5.32014 6.80566 5.95802L6.96151 16.2437C6.97097 16.8681 7.4798 17.3693 8.10423 17.3693H12.8833C13.5145 17.3693 14.0262 16.8576 14.0262 16.2264V15.8455M8.50237 4.79785V5.36928C8.50237 6.00046 9.01405 6.51214 9.64523 6.51214H11.3595C11.9907 6.51214 12.5024 6.00046 12.5024 5.36928V4.79785M8.50237 4.79785H12.5024M12.5024 4.79785H12.8833C13.5145 4.79785 14.0262 5.30953 14.0262 5.94071V15.8455M14.0262 15.8455H15.9741C16.5881 15.8455 17.0925 15.3602 17.1161 14.7465L17.2643 10.8931M17.2643 10.8931H16.8833C16.2521 10.8931 15.7405 10.3814 15.7405 9.75023V8.60737C15.7405 8.18659 16.0816 7.84547 16.5024 7.84547V7.84547M17.2643 10.8931L17.9224 10.7286C18.4312 10.6014 18.7881 10.1442 18.7881 9.61982V8.60738C18.7881 8.18659 18.447 7.84547 18.0262 7.84547V7.84547M16.5024 6.13118V7.84547M16.5024 7.84547H18.0262M18.0262 6.13118V7.84547" stroke="white" stroke-width="0.761905" stroke-linecap="round"/>
</svg>
