<svg width="18" height="11" viewBox="0 0 18 11" fill="none" xmlns="http://www.w3.org/2000/svg">
<path fill-rule="evenodd" clip-rule="evenodd" d="M16.227 4.78309C16.0625 4.81991 15.9496 4.84118 15.8392 4.87064C15.1478 5.05145 14.4515 5.19464 13.7315 5.16764C12.7694 5.13082 11.943 4.74382 11.214 4.12036C10.9195 3.86755 10.6462 3.58855 10.3647 3.32018C10.2281 3.19091 10.1954 3.04364 10.2993 2.87509L10.5652 2.44391L10.9244 2.83827C11.4423 3.41264 11.9962 3.93545 12.7268 4.21445C13.4444 4.48773 14.175 4.44764 14.9089 4.32409C15.9464 4.15064 16.9045 3.73582 17.8437 3.27027C17.8748 3.25473 17.9092 3.24491 18 3.20891C17.9378 3.32591 17.9035 3.39545 17.8642 3.46091C16.4929 5.76655 15.1216 8.07218 13.7487 10.377C13.5802 10.6601 13.5172 10.6814 13.2243 10.5382C11.2885 9.58745 9.261 9.40664 7.16809 9.76664C6.84082 9.82309 6.78273 9.79527 6.62645 9.45982C6.45545 9.09327 6.45709 9.10309 6.84409 9.02864C7.92242 8.81799 9.02657 8.77302 10.1185 8.89527C11.1404 9.00982 12.159 9.16036 13.0966 9.64145C13.2308 9.711 13.302 9.65291 13.3691 9.54164C13.9639 8.54836 14.5587 7.55509 15.1568 6.56345C15.4767 6.03245 15.8032 5.50555 16.1247 4.97618C16.1525 4.93036 16.1746 4.88209 16.227 4.78309ZM1.78282 4.88209C1.92027 5.11364 2.05773 5.34518 2.19682 5.57591L4.94918 10.1414C5.08009 10.359 5.08009 10.3655 4.85345 10.4695C4.365 10.6945 4.42555 10.7525 4.12691 10.2526C3.07145 8.48127 2.01764 6.70827 0.963818 4.93609L0.109636 3.50018C0.0687271 3.43227 0.036 3.35864 0 3.28745L0.0319091 3.24491C0.152182 3.29809 0.273273 3.348 0.391909 3.40364C1.11436 3.74155 1.845 4.05573 2.619 4.24718C3.61227 4.49427 4.59327 4.52291 5.53991 4.05082C6.129 3.75709 6.61418 3.32427 7.05109 2.83091C7.75064 2.03891 8.31845 1.15036 8.83309 0.224182L8.95827 0C9.02618 0.101455 9.06955 0.178364 9.12436 0.245455C9.42627 0.615273 9.35509 0.944182 9.10064 1.32709C8.53282 2.18127 7.96091 3.02727 7.20491 3.72109C6.52909 4.34127 5.77145 4.80927 4.88127 5.02282C4.18255 5.19055 3.48055 5.157 2.77936 5.02691C2.45864 4.96718 2.13955 4.90009 1.81964 4.83627L1.78282 4.88209Z" fill="#FFD600"/>
</svg>
