<svg width="18" height="18" viewBox="0 0 18 18" fill="none" xmlns="http://www.w3.org/2000/svg">
<path d="M16.5 0.750015H11.25C10.8206 0.748256 10.4043 0.897546 10.0738 1.17176C9.74341 1.44598 9.51993 1.82766 9.4425 2.25002L8.7525 6.03752C8.70481 6.30139 8.7157 6.57253 8.78439 6.83173C8.85308 7.09094 8.97789 7.33188 9.15 7.53751C9.32306 7.74325 9.53882 7.90885 9.7823 8.02282C10.0258 8.13679 10.2912 8.1964 10.56 8.19751H12.75L12.5625 8.69251C12.4241 9.05954 12.376 9.45449 12.4223 9.84401C12.4686 10.2335 12.608 10.6062 12.8286 10.9305C13.0493 11.2549 13.3447 11.5214 13.69 11.7075C14.0353 11.8936 14.4203 11.994 14.8125 12C14.958 12.0012 15.1008 11.9599 15.2233 11.8814C15.3458 11.8028 15.4428 11.6903 15.5025 11.5575L17.1825 7.76251C17.2208 7.67984 17.2436 7.59089 17.25 7.50001V1.50002C17.25 1.3011 17.171 1.11034 17.0303 0.969685C16.8897 0.829033 16.6989 0.750015 16.5 0.750015ZM15.75 7.29751L14.3775 10.395C14.2435 10.3221 14.1281 10.2195 14.04 10.095C13.9517 9.97007 13.8959 9.82515 13.8776 9.67328C13.8593 9.52141 13.879 9.36736 13.935 9.22501L14.22 8.47501C14.295 8.2805 14.3205 8.07042 14.2943 7.86361C14.2682 7.6568 14.1911 7.45971 14.07 7.29001C13.9508 7.12097 13.7922 6.98348 13.6079 6.8894C13.4237 6.79532 13.2194 6.74748 13.0125 6.75001H10.545C10.4952 6.75015 10.4459 6.7395 10.4006 6.71878C10.3553 6.69807 10.315 6.66779 10.2825 6.63001C10.2243 6.55004 10.2 6.4503 10.215 6.35252L10.905 2.60252C10.9018 2.55603 10.9084 2.50939 10.9245 2.46567C10.9406 2.42194 10.9658 2.38211 10.9984 2.34881C11.031 2.31551 11.0702 2.28949 11.1136 2.27247C11.157 2.25544 11.2035 2.24779 11.25 2.25002H15.75V7.29751ZM7.455 9.78751H5.2875L5.475 9.29251C5.61142 8.92334 5.65671 8.52669 5.60701 8.13626C5.55731 7.74584 5.4141 7.37318 5.18954 7.04996C4.96497 6.72674 4.6657 6.4625 4.31715 6.27971C3.9686 6.09692 3.58107 6.00097 3.1875 6.00001C3.04195 5.99886 2.89922 6.04009 2.7767 6.11866C2.65418 6.19723 2.55717 6.30976 2.4975 6.44251L0.8175 10.2375C0.774521 10.3318 0.751538 10.4339 0.75 10.5375V16.5375C0.75 16.7364 0.829018 16.9272 0.96967 17.0678C1.11032 17.2085 1.30109 17.2875 1.5 17.2875H6.75C7.17939 17.2893 7.59573 17.14 7.92616 16.8658C8.25659 16.5915 8.48007 16.2099 8.5575 15.7875L9.2475 12.0375C9.29519 11.7736 9.2843 11.5025 9.21561 11.2433C9.14692 10.9841 9.02211 10.7431 8.85 10.5375C8.68737 10.3172 8.47791 10.1356 8.23669 10.0059C7.99548 9.87623 7.72851 9.80164 7.455 9.78751ZM7.095 15.4725C7.08212 15.5533 7.03969 15.6264 6.97594 15.6777C6.9122 15.729 6.83167 15.7548 6.75 15.75H2.25V10.7025L3.6225 7.60501C3.75645 7.6779 3.87191 7.78053 3.96 7.90501C4.04826 8.02995 4.10407 8.17488 4.1224 8.32675C4.14073 8.47862 4.121 8.63266 4.065 8.77501L3.78 9.52501C3.70502 9.71953 3.67948 9.92961 3.70566 10.1364C3.73184 10.3432 3.80892 10.5403 3.93 10.71C4.04756 10.8818 4.20541 11.0222 4.38975 11.119C4.57409 11.2157 4.77932 11.2659 4.9875 11.265H7.455C7.50482 11.2649 7.55409 11.2755 7.5994 11.2962C7.64472 11.317 7.68501 11.3472 7.7175 11.385C7.77572 11.465 7.79998 11.5647 7.785 11.6625L7.095 15.4725Z" fill="white"/>
</svg>
