<svg width="28" height="28" viewBox="0 0 28 28" fill="none" xmlns="http://www.w3.org/2000/svg">
<path d="M1.75 10.4611C1.75 7.41194 1.75 5.88735 2.34341 4.72272C2.86539 3.69828 3.69828 2.86539 4.72272 2.34341C5.88735 1.75 7.41194 1.75 10.4611 1.75H17.5389C20.5881 1.75 22.1127 1.75 23.2773 2.34341C24.3017 2.86539 25.1346 3.69828 25.6566 4.72272C26.25 5.88735 26.25 7.41194 26.25 10.4611V17.5389C26.25 20.5881 26.25 22.1127 25.6566 23.2773C25.1346 24.3017 24.3017 25.1346 23.2773 25.6566C22.1127 26.25 20.5881 26.25 17.5389 26.25H10.4611C7.41194 26.25 5.88735 26.25 4.72272 25.6566C3.69828 25.1346 2.86539 24.3017 2.34341 23.2773C1.75 22.1127 1.75 20.5881 1.75 17.5389V10.4611Z" fill="white"/>
<path d="M19.295 7.45752L14.0562 11.5459L8.69775 7.45752V7.45862L8.70423 7.46415V13.189L13.9958 17.3657L19.295 13.3503V7.45752Z" fill="#EA4335"/>
<path d="M20.6707 6.46309L19.2949 7.45756V13.3503L23.624 10.0266V8.0244C23.624 8.0244 23.0985 5.16475 20.6707 6.46309Z" fill="#FBBC05"/>
<path d="M19.2949 13.3503V20.9934H22.613C22.613 20.9934 23.5571 20.8961 23.6251 19.8199V10.0266L19.2949 13.3503Z" fill="#34A853"/>
<path d="M8.70447 21.0001V13.1891L8.69775 13.1836L8.70447 21.0001Z" fill="#C5221F"/>
<path d="M8.69762 7.45872L7.3294 6.46978C4.90157 5.17145 4.375 8.02999 4.375 8.02999V10.0322L8.69762 13.1835V7.45872Z" fill="#C5221F"/>
<path d="M8.69775 7.45874V13.1836L8.70447 13.1891V7.46427L8.69775 7.45874Z" fill="#C5221F"/>
<path d="M4.375 10.0332V19.8265C4.4419 20.9038 5.38714 21 5.38714 21H8.70517L8.69762 13.1835L4.375 10.0332Z" fill="#4285F4"/>
</svg>
