<svg width="22" height="21" viewBox="0 0 22 21" fill="none" xmlns="http://www.w3.org/2000/svg">
<path d="M6.5295 9.15614C5.99249 7.97291 4.80068 7.15 3.41667 7.15C1.52969 7.15 0 8.67969 0 10.5667C0 12.4536 1.52969 13.9833 3.41667 13.9833C4.80068 13.9833 5.99249 13.1604 6.5295 11.9772M6.5295 9.15614C6.72466 9.58613 6.83333 10.0637 6.83333 10.5667C6.83333 11.0696 6.72466 11.5472 6.5295 11.9772M6.5295 9.15614L13.9705 5.82719M6.5295 11.9772L13.9705 15.3061M13.9705 5.82719C13.7753 5.3972 13.6667 4.91962 13.6667 4.41667C13.6667 3.91371 13.7753 3.43613 13.9705 3.00614C14.5075 1.82291 15.6993 1 17.0833 1C18.9703 1 20.5 2.52969 20.5 4.41667C20.5 6.30364 18.9703 7.83333 17.0833 7.83333C15.6993 7.83333 14.5075 7.01042 13.9705 5.82719ZM13.9705 15.3061C14.5075 14.1229 15.6993 13.3 17.0833 13.3C18.9703 13.3 20.5 14.8297 20.5 16.7167C20.5 18.6036 18.9703 20.1333 17.0833 20.1333C15.6993 20.1333 14.5075 19.3104 13.9705 18.1272C13.7753 17.6972 13.6667 17.2196 13.6667 16.7167C13.6667 16.2137 13.7753 15.7361 13.9705 15.3061Z" stroke="white" stroke-width="1.36667"/>
</svg>
