<svg width="16" height="14" viewBox="0 0 16 14" fill="none" xmlns="http://www.w3.org/2000/svg">
<path d="M13.1654 2.33337C14.1103 3.64686 14.6668 5.25846 14.6668 7.00003C14.6668 8.74161 14.1103 10.3532 13.1654 11.6667M10.497 4.33337C11.0243 5.08926 11.3335 6.00853 11.3335 7.00003C11.3335 7.99153 11.0243 8.91081 10.497 9.6667M6.42304 1.91049L4.31258 4.02095C4.19728 4.13625 4.13963 4.1939 4.07235 4.23513C4.0127 4.27168 3.94767 4.29862 3.87965 4.31495C3.80293 4.33337 3.7214 4.33337 3.55834 4.33337H2.40016C2.02679 4.33337 1.84011 4.33337 1.6975 4.40603C1.57206 4.46994 1.47007 4.57193 1.40616 4.69737C1.3335 4.83998 1.3335 5.02666 1.3335 5.40003V8.60003C1.3335 8.9734 1.3335 9.16009 1.40616 9.30269C1.47007 9.42813 1.57206 9.53012 1.6975 9.59404C1.84011 9.6667 2.02679 9.6667 2.40016 9.6667H3.55834C3.7214 9.6667 3.80293 9.6667 3.87965 9.68512C3.94767 9.70145 4.0127 9.72839 4.07235 9.76494C4.13963 9.80617 4.19728 9.86382 4.31258 9.97912L6.42304 12.0896C6.70862 12.3752 6.85142 12.518 6.97401 12.5276C7.08038 12.536 7.18433 12.4929 7.25363 12.4118C7.3335 12.3183 7.3335 12.1163 7.3335 11.7125V2.28761C7.3335 1.88374 7.3335 1.6818 7.25363 1.58829C7.18433 1.50715 7.08038 1.46409 6.97401 1.47246C6.85142 1.48211 6.70862 1.62491 6.42304 1.91049Z" stroke="white" stroke-width="1.33333" stroke-linecap="round" stroke-linejoin="round"/>
</svg>
